<svg width="50" height="44" viewBox="0 0 50 44" fill="none" xmlns="http://www.w3.org/2000/svg">
<path d="M15 0.333008C13.0789 0.332616 11.2167 0.99598 9.7285 2.21083C8.2403 3.42568 7.21755 5.1174 6.83333 6.99967H0V10.333H6.83333C7.21586 12.2168 8.23788 13.9105 9.72624 15.127C11.2146 16.3435 13.0777 17.008 15 17.008C16.9223 17.008 18.7854 16.3435 20.2738 15.127C21.7621 13.9105 22.7841 12.2168 23.1667 10.333H50V6.99967H23.1667C22.7824 5.1174 21.7597 3.42568 20.2715 2.21083C18.7833 0.99598 16.9211 0.332616 15 0.333008ZM35 26.9997C33.0789 26.9993 31.2167 27.6626 29.7285 28.8775C28.2403 30.0923 27.2176 31.7841 26.8333 33.6663H0V36.9997H26.8333C27.2159 38.8835 28.2379 40.5771 29.7262 41.7936C31.2146 43.0101 33.0777 43.6747 35 43.6747C36.9223 43.6747 38.7854 43.0101 40.2738 41.7936C41.7621 40.5771 42.7841 38.8835 43.1667 36.9997H50V33.6663H43.1667C42.7824 31.7841 41.7597 30.0923 40.2715 28.8775C38.7833 27.6626 36.9211 26.9993 35 26.9997Z" fill="#F2F2F2"/>
</svg>
