<svg width="308" height="68" viewBox="0 0 308 68" fill="none" xmlns="http://www.w3.org/2000/svg">
<path d="M4.69336 10.4062H9.1582L15.7324 29.1973L22.3066 10.4062H26.7715L17.5254 36H13.9395L4.69336 10.4062ZM2.28516 10.4062H6.73242L7.54102 28.7227V36H2.28516V10.4062ZM24.7324 10.4062H29.1973V36H23.9238V28.7227L24.7324 10.4062ZM43.7695 31.7109V23.2383C43.7695 22.6289 43.6699 22.1074 43.4707 21.6738C43.2715 21.2285 42.9609 20.8828 42.5391 20.6367C42.1289 20.3906 41.5957 20.2676 40.9395 20.2676C40.377 20.2676 39.8906 20.3672 39.4805 20.5664C39.0703 20.7539 38.7539 21.0293 38.5312 21.3926C38.3086 21.7441 38.1973 22.1602 38.1973 22.6406H33.1348C33.1348 21.832 33.3223 21.0645 33.6973 20.3379C34.0723 19.6113 34.6172 18.9727 35.332 18.4219C36.0469 17.8594 36.8965 17.4199 37.8809 17.1035C38.877 16.7871 39.9902 16.6289 41.2207 16.6289C42.6973 16.6289 44.0098 16.875 45.1582 17.3672C46.3066 17.8594 47.209 18.5977 47.8652 19.582C48.5332 20.5664 48.8672 21.7969 48.8672 23.2734V31.4121C48.8672 32.4551 48.9316 33.3105 49.0605 33.9785C49.1895 34.6348 49.377 35.209 49.623 35.7012V36H44.5078C44.2617 35.4844 44.0742 34.8398 43.9453 34.0664C43.8281 33.2812 43.7695 32.4961 43.7695 31.7109ZM44.4375 24.416L44.4727 27.2812H41.6426C40.9746 27.2812 40.3945 27.3574 39.9023 27.5098C39.4102 27.6621 39.0059 27.8789 38.6895 28.1602C38.373 28.4297 38.1387 28.7461 37.9863 29.1094C37.8457 29.4727 37.7754 29.8711 37.7754 30.3047C37.7754 30.7383 37.875 31.1309 38.0742 31.4824C38.2734 31.8223 38.5605 32.0918 38.9355 32.291C39.3105 32.4785 39.75 32.5723 40.2539 32.5723C41.0156 32.5723 41.6777 32.4199 42.2402 32.1152C42.8027 31.8105 43.2363 31.4355 43.541 30.9902C43.8574 30.5449 44.0215 30.123 44.0332 29.7246L45.3691 31.8691C45.1816 32.3496 44.9238 32.8477 44.5957 33.3633C44.2793 33.8789 43.875 34.3652 43.3828 34.8223C42.8906 35.2676 42.2988 35.6367 41.6074 35.9297C40.916 36.2109 40.0957 36.3516 39.1465 36.3516C37.9395 36.3516 36.8438 36.1113 35.8594 35.6309C34.8867 35.1387 34.1133 34.4648 33.5391 33.6094C32.9766 32.7422 32.6953 31.7578 32.6953 30.6562C32.6953 29.6602 32.8828 28.7754 33.2578 28.002C33.6328 27.2285 34.1836 26.5781 34.9102 26.0508C35.6484 25.5117 36.5684 25.1074 37.6699 24.8379C38.7715 24.5566 40.0488 24.416 41.502 24.416H44.4375ZM64.002 31.8516V9H69.0996V36H64.5117L64.002 31.8516ZM51.9785 26.7188V26.3496C51.9785 24.8965 52.1426 23.5781 52.4707 22.3945C52.7988 21.1992 53.2793 20.1738 53.9121 19.3184C54.5449 18.4629 55.3242 17.8008 56.25 17.332C57.1758 16.8633 58.2305 16.6289 59.4141 16.6289C60.5273 16.6289 61.5 16.8633 62.332 17.332C63.1758 17.8008 63.8906 18.4688 64.4766 19.3359C65.0742 20.1914 65.5547 21.2051 65.918 22.377C66.2812 23.5371 66.5449 24.8086 66.709 26.1914V27C66.5449 28.3242 66.2812 29.5547 65.918 30.6914C65.5547 31.8281 65.0742 32.8242 64.4766 33.6797C63.8906 34.5234 63.1758 35.1797 62.332 35.6484C61.4883 36.1172 60.5039 36.3516 59.3789 36.3516C58.1953 36.3516 57.1406 36.1113 56.2148 35.6309C55.3008 35.1504 54.5273 34.4766 53.8945 33.6094C53.2734 32.7422 52.7988 31.7227 52.4707 30.5508C52.1426 29.3789 51.9785 28.1016 51.9785 26.7188ZM57.041 26.3496V26.7188C57.041 27.5039 57.0996 28.2363 57.2168 28.916C57.3457 29.5957 57.5508 30.1992 57.832 30.7266C58.125 31.2422 58.5 31.6465 58.957 31.9395C59.4258 32.2207 59.9941 32.3613 60.6621 32.3613C61.5293 32.3613 62.2441 32.168 62.8066 31.7812C63.3691 31.3828 63.7969 30.8379 64.0898 30.1465C64.3945 29.4551 64.5703 28.6582 64.6172 27.7559V25.4531C64.582 24.7148 64.4766 24.0527 64.3008 23.4668C64.1367 22.8691 63.8906 22.3594 63.5625 21.9375C63.2461 21.5156 62.8477 21.1875 62.3672 20.9531C61.8984 20.7188 61.3418 20.6016 60.6973 20.6016C60.041 20.6016 59.4785 20.7539 59.0098 21.0586C58.541 21.3516 58.1602 21.7559 57.8672 22.2715C57.5859 22.7871 57.375 23.3965 57.2344 24.0996C57.1055 24.791 57.041 25.541 57.041 26.3496ZM83.3203 31.7109V23.2383C83.3203 22.6289 83.2207 22.1074 83.0215 21.6738C82.8223 21.2285 82.5117 20.8828 82.0898 20.6367C81.6797 20.3906 81.1465 20.2676 80.4902 20.2676C79.9277 20.2676 79.4414 20.3672 79.0312 20.5664C78.6211 20.7539 78.3047 21.0293 78.082 21.3926C77.8594 21.7441 77.748 22.1602 77.748 22.6406H72.6855C72.6855 21.832 72.873 21.0645 73.248 20.3379C73.623 19.6113 74.168 18.9727 74.8828 18.4219C75.5977 17.8594 76.4473 17.4199 77.4316 17.1035C78.4277 16.7871 79.541 16.6289 80.7715 16.6289C82.248 16.6289 83.5605 16.875 84.709 17.3672C85.8574 17.8594 86.7598 18.5977 87.416 19.582C88.084 20.5664 88.418 21.7969 88.418 23.2734V31.4121C88.418 32.4551 88.4824 33.3105 88.6113 33.9785C88.7402 34.6348 88.9277 35.209 89.1738 35.7012V36H84.0586C83.8125 35.4844 83.625 34.8398 83.4961 34.0664C83.3789 33.2812 83.3203 32.4961 83.3203 31.7109ZM83.9883 24.416L84.0234 27.2812H81.1934C80.5254 27.2812 79.9453 27.3574 79.4531 27.5098C78.9609 27.6621 78.5566 27.8789 78.2402 28.1602C77.9238 28.4297 77.6895 28.7461 77.5371 29.1094C77.3965 29.4727 77.3262 29.8711 77.3262 30.3047C77.3262 30.7383 77.4258 31.1309 77.625 31.4824C77.8242 31.8223 78.1113 32.0918 78.4863 32.291C78.8613 32.4785 79.3008 32.5723 79.8047 32.5723C80.5664 32.5723 81.2285 32.4199 81.791 32.1152C82.3535 31.8105 82.7871 31.4355 83.0918 30.9902C83.4082 30.5449 83.5723 30.123 83.584 29.7246L84.9199 31.8691C84.7324 32.3496 84.4746 32.8477 84.1465 33.3633C83.8301 33.8789 83.4258 34.3652 82.9336 34.8223C82.4414 35.2676 81.8496 35.6367 81.1582 35.9297C80.4668 36.2109 79.6465 36.3516 78.6973 36.3516C77.4902 36.3516 76.3945 36.1113 75.4102 35.6309C74.4375 35.1387 73.6641 34.4648 73.0898 33.6094C72.5273 32.7422 72.2461 31.7578 72.2461 30.6562C72.2461 29.6602 72.4336 28.7754 72.8086 28.002C73.1836 27.2285 73.7344 26.5781 74.4609 26.0508C75.1992 25.5117 76.1191 25.1074 77.2207 24.8379C78.3223 24.5566 79.5996 24.416 81.0527 24.416H83.9883Z" fill="white"/>
<path d="M104.08 10.4062V36H98.8242V10.4062H104.08ZM111.955 10.4062V14.5371H91.0723V10.4062H111.955ZM118.477 21.1289V36H113.414V16.9805H118.178L118.477 21.1289ZM124.207 16.8574L124.119 21.5508C123.873 21.5156 123.574 21.4863 123.223 21.4629C122.883 21.4277 122.572 21.4102 122.291 21.4102C121.576 21.4102 120.955 21.5039 120.428 21.6914C119.912 21.8672 119.479 22.1309 119.127 22.4824C118.787 22.834 118.529 23.2617 118.354 23.7656C118.189 24.2695 118.096 24.8438 118.072 25.4883L117.053 25.1719C117.053 23.9414 117.176 22.8105 117.422 21.7793C117.668 20.7363 118.025 19.8281 118.494 19.0547C118.975 18.2812 119.561 17.6836 120.252 17.2617C120.943 16.8398 121.734 16.6289 122.625 16.6289C122.906 16.6289 123.193 16.6523 123.486 16.6992C123.779 16.7344 124.02 16.7871 124.207 16.8574ZM136.266 31.7109V23.2383C136.266 22.6289 136.166 22.1074 135.967 21.6738C135.768 21.2285 135.457 20.8828 135.035 20.6367C134.625 20.3906 134.092 20.2676 133.436 20.2676C132.873 20.2676 132.387 20.3672 131.977 20.5664C131.566 20.7539 131.25 21.0293 131.027 21.3926C130.805 21.7441 130.693 22.1602 130.693 22.6406H125.631C125.631 21.832 125.818 21.0645 126.193 20.3379C126.568 19.6113 127.113 18.9727 127.828 18.4219C128.543 17.8594 129.393 17.4199 130.377 17.1035C131.373 16.7871 132.486 16.6289 133.717 16.6289C135.193 16.6289 136.506 16.875 137.654 17.3672C138.803 17.8594 139.705 18.5977 140.361 19.582C141.029 20.5664 141.363 21.7969 141.363 23.2734V31.4121C141.363 32.4551 141.428 33.3105 141.557 33.9785C141.686 34.6348 141.873 35.209 142.119 35.7012V36H137.004C136.758 35.4844 136.57 34.8398 136.441 34.0664C136.324 33.2812 136.266 32.4961 136.266 31.7109ZM136.934 24.416L136.969 27.2812H134.139C133.471 27.2812 132.891 27.3574 132.398 27.5098C131.906 27.6621 131.502 27.8789 131.186 28.1602C130.869 28.4297 130.635 28.7461 130.482 29.1094C130.342 29.4727 130.271 29.8711 130.271 30.3047C130.271 30.7383 130.371 31.1309 130.57 31.4824C130.77 31.8223 131.057 32.0918 131.432 32.291C131.807 32.4785 132.246 32.5723 132.75 32.5723C133.512 32.5723 134.174 32.4199 134.736 32.1152C135.299 31.8105 135.732 31.4355 136.037 30.9902C136.354 30.5449 136.518 30.123 136.529 29.7246L137.865 31.8691C137.678 32.3496 137.42 32.8477 137.092 33.3633C136.775 33.8789 136.371 34.3652 135.879 34.8223C135.387 35.2676 134.795 35.6367 134.104 35.9297C133.412 36.2109 132.592 36.3516 131.643 36.3516C130.436 36.3516 129.34 36.1113 128.355 35.6309C127.383 35.1387 126.609 34.4648 126.035 33.6094C125.473 32.7422 125.191 31.7578 125.191 30.6562C125.191 29.6602 125.379 28.7754 125.754 28.002C126.129 27.2285 126.68 26.5781 127.406 26.0508C128.145 25.5117 129.064 25.1074 130.166 24.8379C131.268 24.5566 132.545 24.416 133.998 24.416H136.934ZM150.223 21.041V36H145.16V16.9805H149.906L150.223 21.041ZM149.484 25.8223H148.113C148.113 24.416 148.295 23.1504 148.658 22.0254C149.021 20.8887 149.531 19.9219 150.188 19.125C150.844 18.3164 151.623 17.7012 152.525 17.2793C153.439 16.8457 154.459 16.6289 155.584 16.6289C156.475 16.6289 157.289 16.7578 158.027 17.0156C158.766 17.2734 159.398 17.6836 159.926 18.2461C160.465 18.8086 160.875 19.5527 161.156 20.4785C161.449 21.4043 161.596 22.5352 161.596 23.8711V36H156.498V23.8535C156.498 23.0098 156.381 22.3535 156.146 21.8848C155.912 21.416 155.566 21.0879 155.109 20.9004C154.664 20.7012 154.113 20.6016 153.457 20.6016C152.777 20.6016 152.186 20.7363 151.682 21.0059C151.189 21.2754 150.779 21.6504 150.451 22.1309C150.135 22.5996 149.895 23.1504 149.73 23.7832C149.566 24.416 149.484 25.0957 149.484 25.8223ZM175.729 30.7441C175.729 30.3809 175.623 30.0527 175.412 29.7598C175.201 29.4668 174.809 29.1973 174.234 28.9512C173.672 28.6934 172.857 28.459 171.791 28.248C170.83 28.0371 169.934 27.7734 169.102 27.457C168.281 27.1289 167.566 26.7363 166.957 26.2793C166.359 25.8223 165.891 25.2832 165.551 24.6621C165.211 24.0293 165.041 23.3086 165.041 22.5C165.041 21.7031 165.211 20.9531 165.551 20.25C165.902 19.5469 166.4 18.9258 167.045 18.3867C167.701 17.8359 168.498 17.4082 169.436 17.1035C170.385 16.7871 171.451 16.6289 172.635 16.6289C174.287 16.6289 175.705 16.8926 176.889 17.4199C178.084 17.9473 178.998 18.6738 179.631 19.5996C180.275 20.5137 180.598 21.5566 180.598 22.7285H175.535C175.535 22.2363 175.43 21.7969 175.219 21.4102C175.02 21.0117 174.703 20.7012 174.27 20.4785C173.848 20.2441 173.297 20.127 172.617 20.127C172.055 20.127 171.568 20.2266 171.158 20.4258C170.748 20.6133 170.432 20.8711 170.209 21.1992C169.998 21.5156 169.893 21.8672 169.893 22.2539C169.893 22.5469 169.951 22.8105 170.068 23.0449C170.197 23.2676 170.402 23.4727 170.684 23.6602C170.965 23.8477 171.328 24.0234 171.773 24.1875C172.23 24.3398 172.793 24.4805 173.461 24.6094C174.832 24.8906 176.057 25.2598 177.135 25.7168C178.213 26.1621 179.068 26.7715 179.701 27.5449C180.334 28.3066 180.65 29.3086 180.65 30.5508C180.65 31.3945 180.463 32.168 180.088 32.8711C179.713 33.5742 179.174 34.1895 178.471 34.7168C177.768 35.2324 176.924 35.6367 175.939 35.9297C174.967 36.2109 173.871 36.3516 172.652 36.3516C170.883 36.3516 169.383 36.0352 168.152 35.4023C166.934 34.7695 166.008 33.9668 165.375 32.9941C164.754 32.0098 164.443 31.002 164.443 29.9707H169.242C169.266 30.6621 169.441 31.2188 169.77 31.6406C170.109 32.0625 170.537 32.3672 171.053 32.5547C171.58 32.7422 172.148 32.8359 172.758 32.8359C173.414 32.8359 173.959 32.748 174.393 32.5723C174.826 32.3848 175.154 32.1387 175.377 31.834C175.611 31.5176 175.729 31.1543 175.729 30.7441ZM184.184 33.5566C184.184 32.8066 184.441 32.1797 184.957 31.6758C185.484 31.1719 186.182 30.9199 187.049 30.9199C187.916 30.9199 188.607 31.1719 189.123 31.6758C189.65 32.1797 189.914 32.8066 189.914 33.5566C189.914 34.3066 189.65 34.9336 189.123 35.4375C188.607 35.9414 187.916 36.1934 187.049 36.1934C186.182 36.1934 185.484 35.9414 184.957 35.4375C184.441 34.9336 184.184 34.3066 184.184 33.5566ZM199.441 20.918V36H194.361V16.9805H199.125L199.441 20.918ZM198.738 25.8223H197.332C197.332 24.498 197.49 23.2793 197.807 22.166C198.135 21.041 198.609 20.0684 199.23 19.248C199.863 18.416 200.643 17.7715 201.568 17.3145C202.494 16.8574 203.566 16.6289 204.785 16.6289C205.629 16.6289 206.402 16.7578 207.105 17.0156C207.809 17.2617 208.412 17.6543 208.916 18.1934C209.432 18.7207 209.83 19.4121 210.111 20.2676C210.393 21.1113 210.533 22.125 210.533 23.3086V36H205.471V23.8711C205.471 23.0039 205.354 22.3359 205.119 21.8672C204.885 21.3984 204.551 21.0703 204.117 20.8828C203.695 20.6953 203.186 20.6016 202.588 20.6016C201.932 20.6016 201.357 20.7363 200.865 21.0059C200.385 21.2754 199.986 21.6504 199.67 22.1309C199.354 22.5996 199.119 23.1504 198.967 23.7832C198.814 24.416 198.738 25.0957 198.738 25.8223ZM210.059 25.2422L208.248 25.4707C208.248 24.2285 208.4 23.0742 208.705 22.0078C209.021 20.9414 209.484 20.0039 210.094 19.1953C210.715 18.3867 211.482 17.7598 212.396 17.3145C213.311 16.8574 214.365 16.6289 215.561 16.6289C216.475 16.6289 217.307 16.7637 218.057 17.0332C218.807 17.291 219.445 17.707 219.973 18.2812C220.512 18.8438 220.922 19.582 221.203 20.4961C221.496 21.4102 221.643 22.5293 221.643 23.8535V36H216.562V23.8535C216.562 22.9746 216.445 22.3066 216.211 21.8496C215.988 21.3809 215.66 21.0586 215.227 20.8828C214.805 20.6953 214.301 20.6016 213.715 20.6016C213.105 20.6016 212.572 20.7246 212.115 20.9707C211.658 21.2051 211.277 21.5332 210.973 21.9551C210.668 22.377 210.439 22.8691 210.287 23.4316C210.135 23.9824 210.059 24.5859 210.059 25.2422ZM237.604 16.9805H242.191V35.3672C242.191 37.1016 241.805 38.5723 241.031 39.7793C240.27 40.998 239.203 41.918 237.832 42.5391C236.461 43.1719 234.867 43.4883 233.051 43.4883C232.254 43.4883 231.41 43.3828 230.52 43.1719C229.641 42.9609 228.797 42.6328 227.988 42.1875C227.191 41.7422 226.523 41.1797 225.984 40.5L228.217 37.5117C228.803 38.1914 229.482 38.7188 230.256 39.0938C231.029 39.4805 231.885 39.6738 232.822 39.6738C233.736 39.6738 234.51 39.5039 235.143 39.1641C235.775 38.8359 236.262 38.3496 236.602 37.7051C236.941 37.0723 237.111 36.3047 237.111 35.4023V21.375L237.604 16.9805ZM224.807 26.7188V26.3496C224.807 24.8965 224.982 23.5781 225.334 22.3945C225.697 21.1992 226.207 20.1738 226.863 19.3184C227.531 18.4629 228.34 17.8008 229.289 17.332C230.238 16.8633 231.311 16.6289 232.506 16.6289C233.771 16.6289 234.832 16.8633 235.688 17.332C236.543 17.8008 237.246 18.4688 237.797 19.3359C238.348 20.1914 238.775 21.2051 239.08 22.377C239.396 23.5371 239.643 24.8086 239.818 26.1914V27C239.643 28.3242 239.379 29.5547 239.027 30.6914C238.676 31.8281 238.213 32.8242 237.639 33.6797C237.064 34.5234 236.35 35.1797 235.494 35.6484C234.65 36.1172 233.643 36.3516 232.471 36.3516C231.299 36.3516 230.238 36.1113 229.289 35.6309C228.352 35.1504 227.549 34.4766 226.881 33.6094C226.213 32.7422 225.697 31.7227 225.334 30.5508C224.982 29.3789 224.807 28.1016 224.807 26.7188ZM229.869 26.3496V26.7188C229.869 27.5039 229.945 28.2363 230.098 28.916C230.25 29.5957 230.484 30.1992 230.801 30.7266C231.129 31.2422 231.533 31.6465 232.014 31.9395C232.506 32.2207 233.086 32.3613 233.754 32.3613C234.68 32.3613 235.436 32.168 236.021 31.7812C236.607 31.3828 237.047 30.8379 237.34 30.1465C237.633 29.4551 237.803 28.6582 237.85 27.7559V25.4531C237.826 24.7148 237.727 24.0527 237.551 23.4668C237.375 22.8691 237.129 22.3594 236.812 21.9375C236.496 21.5156 236.086 21.1875 235.582 20.9531C235.078 20.7188 234.48 20.6016 233.789 20.6016C233.121 20.6016 232.541 20.7539 232.049 21.0586C231.568 21.3516 231.164 21.7559 230.836 22.2715C230.52 22.7871 230.279 23.3965 230.115 24.0996C229.951 24.791 229.869 25.541 229.869 26.3496Z" fill="#FF004B"/>
<path fill-rule="evenodd" clip-rule="evenodd" d="M302.32 38.5119C305.548 34.4576 307.476 29.3231 307.476 23.7382C307.476 10.6279 296.848 0 283.738 0C277.319 0 271.494 2.54824 267.221 6.68838L278.31 10.4489L271.14 19.2231L266.064 7.89118C262.293 12.0935 260 17.648 260 23.7382C260 36.8484 270.628 47.4763 283.738 47.4763C290.212 47.4763 296.08 44.8849 300.363 40.6828L290.872 36.6526L298.608 28.4433L302.32 38.5119ZM283.948 35.3833C289.749 35.3833 294.452 30.1696 294.452 23.7382C294.452 17.3067 289.749 12.093 283.948 12.093C278.147 12.093 273.445 17.3067 273.445 23.7382C273.445 30.1696 278.147 35.3833 283.948 35.3833Z" fill="#FF004B"/>
<rect y="61" width="165" height="7" rx="3.5" fill="white"/>
<rect y="51" width="223" height="7" rx="3.5" fill="#FF004B"/>
</svg>
